<svg id="Layer_1" xmlns="http://www.w3.org/2000/svg" viewBox="0 0 229.5 187.5">
  <style>
    .st0{fill:#FFFFFF;stroke:#000000;stroke-width:2;stroke-miterlimit:10;} .st1{fill:none;stroke:#000000;stroke-width:2;stroke-miterlimit:10;} .st2{fill:#FFFFFF;stroke:#000000;stroke-width:1.6452;stroke-miterlimit:10;} .st3{stroke:#000000;stroke-width:8.879396e-02;stroke-miterlimit:10;}
  </style>
  <path class="st0" d="M46.5 61.8c33.1-6.7 72.8 15 75.2 40.8 4.2 45.5-22.1 63.7-55.2 66.9-22.3 2.2-41.3-10.3-47.7-33.2 3.7-2.7 28-73.4 27.7-74.5z"/>
  <path class="st0" d="M67.2 48.5c-5.7-7.2-4.6 15.1-17 4.5-10.5-9-19.7.2-17.8-5 1.9-5.2-1.4-11.6-1.4-11.6-.6-3.3-1.2-6.6-1.9-9.8-.8-3.4-1.2-3.9 1.9-6.3 4.3-3.2 9.2-5.8 14-8.3 1.9-1 4.1-2.7 6.2-2.8 3.2-.1 7.4 1.7 10.3 2.9 12.2 5 18.4 15.1 21 27.5 2.3 11.2.9 25.9-7.6 35.2l-35.9-8c.2-6-1.4-12.2-3.2-17.9"/>
  <ellipse class="st1" cx="54.4" cy="38" rx="5" ry="5.2"/>
  <path class="st1" d="M96.8 91.3S90.3 77 78 70.2"/>
  <path d="M102.1 134.2s-3.9 18.9-22.9 27.1c0 0-16.3 25.3-53.7-8.8 0 0 45 12 74.1-18.3"/>
  <path class="st0" d="M26.1 177.6l21.4.4s-7-34.7-17.1-44.6c-1.6-1.6-1.6.9-6.9 2 0 0-1 0-2.2-.1.5.7.7 1.5.8 2.3.9.9 1.4 2.2 1.4 3.4 0 1.3-.5 2.6-1.5 3.5 6.1 12 11.7 30 4.1 33.1zm-.6-34.2l-1.4-.7c1.6.1 2.7 0 1.4.7zM52.5 137s28.6 36.4 14.4 43.2l24.3.5s-7-35.7-17.1-45.6c-2.6-2.4-17.1 3-21.6 1.9zM88.9 79.4c7.8 12.2 19 25.8 21.1 45.2 1.1 10-1.4 19.5-5.6 23.7-5.4 5.3-7-4.2-7.2-12.7-.3-12.3-.2-23.4-2.7-36.3-.6-2.9-1.3-5.8-2.2-8.5-.4-1.1-2.9-6.5-2.9-7.3 0-.1-1.5-5.6-.5-4.1z"/>
  <ellipse transform="rotate(-8.31 35.1 36.086)" class="st1" cx="35.1" cy="36.1" rx="3.2" ry="5.2"/>
  <path class="st0" d="M36.6 67.3c1.6 13.3-8.2 35.8-8.2 35.8-3.4 7-8.9 15.1-9.9 22.6-1.9 13.2 3.1 26.6 17.7 32.7 8.2 3.4 17.4 5 26.5 4.4 20.6-1.5 32-13.3 36.6-29.9 2.6-9.5.5-18.9-1.3-28.6-8.8-46.3-62.7-48.1-61.4-37z"/>
  <path class="st2" d="M151.5 160.6c9.5 2.3 18.7 6.9 28.2 9.4 4.5 1.2 6.9 3.1 10.2.8-2.5-6.9-3.7-15.7.9-21.8 3-4 6.4-6 8.5-10.8 2-4.4 2.9-8.8 3.8-13.5 2-10.4 4.4-19.5 10.1-28.6 2.2-3.6 7.6-4.1 7.2-11.5-5.6-.5-11.6 1-17.3-.4-13.8-3.5-27.6-11.2-41.3-15.7-5.9-1.9-11.5-5.4-17.1-7.1-2-.6-6.2.7-8.2.3-8.2-1.7-9.4-2.2-10.8-2.6-16.4-3.5-9.6 4.1-26.8 3.5-5.1-.2-12.2 2-16.9-.4-2.6 5.7-.3 3.5-5.2 7.6C90 73.8 81 129.4 92 137c10.8 7.5 22.2 16 34.8 19.9l24.7 3.7z"/>
  <path class="st3" d="M179.9 75.6c.1 2 .5-1.5-1.5 3-3 7-6.9 12.6-12.1 18.1-.4.5-1.8 1.8-2.5 2.5.2-2.6.6-5.7.8-8.1 0-.3.4-.7.6-.9 2.2-2.7 4.6-5.2 6.5-8 1.8-2.6 3.3-5.1 3.3-8.5 0-.9-.2-.9-4.3-2.4-2.6-1-4.3-1.8-6.8-1.3-.6.1-1.2.4-1.7.5-.1-.1-.2-.6-.3-.7.1-.1 0-.2 3.1-.9-.5 0-1-.1-1.4-.1-.7.5 1.5-.2.4-.3-.8.3-1.5.6-2.3.8 0 0-.2-.8-.4-1.5-3.1-.9-6.1-2.1-9.2-3-.8-.2-1.6-.5-2.3-.7.1.1.1.1.2.1 1.7 1.9 2.7 4.2 3.5 6.5.3.7.5 1.5.7 2.2-2.9 1.9-5.8 3.7-8.6 5.7s-5.6 4.3-8.4 6.4c0-.2 1.6-11.6 3.9-16.7.7-1.5 1.6-3 2.7-4.3.7-.8 1.4-1.2 2.1-1.4-1.4-.6-2.8-1.2-4.2-2-.3.7-.7 1.3-1 2-1 2-1.5 4.2-2.1 6.2-1.6 5.4-2.5 11-3 16.6-.1.9-.4 1.5-1.1 2.1-1.4 1.3-2.8 2.7-4.1 4.1-2.4 2.5-4.7 5.2-6.7 8-2.1 2.8-4.1 5.8-5.4 9.1-1.4 3.2-2.4 7.8 0 10.8.4.6.8 1.1 1.5 1.5 1.3.6 2.8.9 4.2.9 2.4 0 4.8-.4 7.1-1.1.6-.2 6.8-2.3 6.7-2.5.6 1.6 1.1 3.2 1.7 4.8 1.1 2.7 2.4 5.3 4.6 7.3 2.6 2.4 5.5 2.4 8.2.2.6-.5 1.1-1 1.6-1.5 2.4-2.7 3.8-5.8 5-9.1 2.3-6 4.5-19.6 4.5-19.9-2.4 2-5 4.6-7.4 6.7.3-3.3.5-6.4.7-9.6-6 4.8-12 8.9-18.8 12-.1-.3-.1-.4-.1-.5-1-6.8-1.2-13.5-.7-20.4 0-.5.4-1.1.8-1.5 4.3-3.8 8.9-7.3 13.9-10.3.9-.6 1.9-1.1 3-1.8 1.8 7.4 2.2 14.7 2.1 22.4 2.5-2.2 4.7-4.3 7.2-6.5-.2 3.2-.3 6.2-.5 9.4.4-.3.7-.6.9-.8 1.8-1.9 3.6-3.7 5.2-5.6.9-1.1 1.9-2.2 2.7-3.3 3.1-4 6.3-9 7.8-13.9M155 112.3c-.7 3.3-1.5 6.6-3.2 9.6-.6 1.2-1.4 2.3-2.4 3.3-1.8 1.8-3.8 1.8-5.6 0-2.2-2.1-3.2-4.9-4.1-7.5 5.4-3.5 10.7-7 16.1-10.5-.1 1.7-.4 3.4-.8 5.1zm-19.1-2.2c-2.8 1-5.9 2.2-9.2 1.8-2.9-.3-4.3-2.1-3.7-4.9.5-2.1 1.3-4.1 2.4-6 2.5-4.3 5.8-7.9 9.4-11.4.1-.1.3-.2.4-.3.1 6.9.4 13.8.7 20.8zm-.7-21.6s-5.4 5.3-7.4 7.7c-2.3 2.8-4.3 5.8-5.4 9.3-.6 1.8-1.3 3.8.4 5.3.9.8 2 1.6 3.2 1.8 2.7.5 5.3-.1 7.8-1 7.2-2.5 21.3-12.6 22.1-13.2-.1 2.4-.4 8.2-.4 8.2s-9.4 6-14.1 8.5c-4.4 2.4-8.9 4.7-13.9 5.7-2.3.5-4.4.6-6.7-.2s-3.6-2.9-3.4-5.7c.2-3.3 1.3-6.3 2.9-9.1 3.8-6.5 8.4-12.3 13.9-17.4l.8-.8.2.9zm13.4-10.8c-2 1.3-3.9 2.8-5.7 4.2-1.9 1.4-3.7 3.1-5.7 4.5-.1-.9-.1-.7.2-.9 5.3-3.8 10.5-8.3 16.3-11.5.2-.1.6-.5.8-.6.1.1.1.5.2.6-2 1.3-4.2 2.5-6.1 3.7zm14-6.6c2.6-.9 4.7.3 7.8.7 2.4.3 4.2.6 4.2 2.1 0 2.5-1.3 4.7-2.6 6.8-2.2 3.6-4.9 6.8-7.8 9.7-.6-6.3-1.1-12.7-1.6-19.3z" id="bYn67y_2_"/>
</svg>
