<svg xmlns="http://www.w3.org/2000/svg" viewBox="0 0 64 40.93"><defs><style>.super-hero-icon__path{fill:#fff;}</style></defs><title>Super hero</title><path d="M58.75,35.93a5,5,0,0,1-5,5H10.25a5,5,0,0,1-5-5V5a5,5,0,0,1,5-5h43.5a5,5,0,0,1,5,5Z"/><path class="super-hero-icon__path" d="M46.76,4.3H17.24l-5.16,9.38L32,36.63,51.92,13.68ZM32,33.23,19.46,18.51l-3.28-3.78h.06L15,13.3l1.67-3L18.6,6.83v0l.08-.15h26.8L49,13.33l-1.19,1.4h.05l-3,3.41Z"/><path class="super-hero-icon__path" d="M32.54,11.09a.76.76,0,0,1,.22.55,1,1,0,0,1-.09.35l-2.93,7a1.05,1.05,0,0,1-.37.45,1,1,0,0,1-.56.18h-.15a1,1,0,0,1-.56-.18,1,1,0,0,1-.37-.45l-2.95-7a.94.94,0,0,1-.09-.35.76.76,0,0,1,.22-.54.72.72,0,0,1,.54-.23.74.74,0,0,1,.41.13.74.74,0,0,1,.28.31l2.58,6.52,2.58-6.54a.73.73,0,0,1,.28-.31.74.74,0,0,1,.41-.13A.72.72,0,0,1,32.54,11.09Z"/><path class="super-hero-icon__path" d="M39.08,11.09a.72.72,0,0,0-.54-.24.74.74,0,0,0-.41.13.73.73,0,0,0-.28.31l-2.57,6.54L33.6,13.59l-.81,1.92L34.25,19a1,1,0,0,0,.37.45,1,1,0,0,0,.56.18h.17a1,1,0,0,0,.56-.18,1.05,1.05,0,0,0,.37-.45l2.93-7a1,1,0,0,0,.09-.35A.76.76,0,0,0,39.08,11.09Z"/></svg>
